<svg width="308" height="109" viewBox="0 0 308 109" xmlns="http://www.w3.org/2000/svg"><g fill="none"><path d="M119.973 97.014c-16.469 0-26.796-10.718-26.796-24.837V25.514c0-14.117 10.327-24.835 26.796-24.835s25.751 10.718 25.751 24.835v8.757c0 1.831-1.57 3.398-3.399 3.398h-11.242c-1.831 0-3.398-1.567-3.398-3.398v-8.757c0-4.314-2.353-8.758-7.712-8.758-5.883 0-8.365 4.444-8.365 8.758v46.663c0 4.314 2.482 8.759 8.365 8.759 5.359 0 7.712-4.445 7.712-8.759V63.42c0-1.829 1.567-3.399 3.398-3.399h11.242c1.829 0 3.399 1.57 3.399 3.399v8.757c0 14.119-9.282 24.837-25.751 24.837m70.261-1.569h-35.553c-1.831 0-3.398-1.57-3.398-3.398V5.384c0-1.831 1.567-3.268 3.398-3.268h11.764a3.236 3.236 0 0 1 3.268 3.268v70.715c0 1.831 1.567 3.268 3.398 3.268h17.123c1.829 0 3.398 1.569 3.398 3.398v9.282c0 1.828-1.569 3.398-3.398 3.398m41.038-68.624c-.13-.916-.916-1.437-1.57-1.437-.653 0-1.437.521-1.437 1.437l-4.181 30.456c-.262 1.829.913 3.268 2.874 3.268h5.621c1.829 0 2.877-1.439 2.744-3.268l-4.051-30.456zm26.274 68.624H245.65c-1.961 0-3.66-1.437-3.922-3.269l-2.745-14.77c-.391-1.829-2.09-3.398-3.922-3.398h-10.586c-1.961 0-3.66 1.569-3.922 3.398l-2.744 14.77c-.392 1.832-2.091 3.269-3.922 3.269h-11.894c-1.961 0-3.006-1.437-2.615-3.269l18.561-86.792c.391-1.831 2.09-3.268 4.051-3.268h15.556c1.829 0 3.66 1.437 4.052 3.268l18.56 86.792c.394 1.832-.783 3.269-2.612 3.269zm32.645-44.705c-.261.916-.653 2.223-.915 3.401-.13 1.175-.26 2.22-.26 3.136v34.77c0 1.828-1.439 3.398-3.4 3.398h-11.764c-1.829 0-3.398-1.57-3.398-3.398v-34.9c0-1.048-.13-2.223-.392-3.53-.13-1.046-.392-2.223-.783-3.007L252.677 5.252c-.524-1.699.392-3.136 2.223-3.136h10.719c2.482 0 4.051 1.307 4.443 3.136l8.236 28.627c.26.916.913 1.308 1.437 1.308.654 0 1.175-.392 1.437-1.308l8.366-28.627c.524-1.829 1.831-3.136 4.314-3.136h10.85c1.959 0 2.874 1.437 2.221 3.136L290.191 50.74" fill="#8F9081"/><g transform="translate(0 2)"><path d="M43.428 67.018c-.095.28-.251.78-.445 1.483a55.428 55.428 0 0 0-.928 3.95c-2.01 10.079-2.01 21.274 1.347 32.507a2.265 2.265 0 1 0 4.34-1.296c-3.123-10.444-3.123-20.917-1.242-30.325.268-1.365.56-2.58.85-3.627.102-.363.192-.677.275-.94l.09-.286a2.269 2.269 0 0 0-1.41-2.876 2.269 2.269 0 0 0-2.88 1.41h.003zm29.28 1.468a23.792 23.792 0 0 1 .364 1.222c.292 1.048.582 2.264.854 3.627 1.877 9.41 1.877 19.88-1.242 30.328a2.262 2.262 0 0 0 1.52 2.821 2.27 2.27 0 0 0 2.822-1.524c3.355-11.237 3.355-22.433 1.343-32.511a55.27 55.27 0 0 0-.927-3.95 27.541 27.541 0 0 0-.445-1.482 2.268 2.268 0 0 0-2.878-1.41 2.268 2.268 0 0 0-1.41 2.877v.002zM4.916 70.803c.426-9.235 4.204-15 10.296-18.235 2.226-1.184 4.63-1.948 7.052-2.368a24.755 24.755 0 0 1 2.401-.293c.454-.03.79-.04.984-.04h-.003a2.267 2.267 0 0 0 .08-4.533h-.036c-.31 0-.761.01-1.335.05-.88.061-1.842.174-2.865.35-2.864.497-5.72 1.402-8.407 2.83C5.602 52.538.888 59.73.384 70.593a2.27 2.27 0 0 0 2.161 2.368 2.263 2.263 0 0 0 2.368-2.159h.002zm117.064-.208c-.504-10.864-5.214-18.056-12.698-22.03-2.686-1.427-5.54-2.334-8.403-2.83a28.462 28.462 0 0 0-2.867-.349 19.32 19.32 0 0 0-1.336-.05h-.034a2.266 2.266 0 1 0 .077 4.532c.193-.003.528.007.98.037.731.05 1.539.146 2.404.295 2.418.42 4.826 1.183 7.052 2.368 6.092 3.234 9.87 9 10.296 18.235a2.266 2.266 0 1 0 4.527-.21l.002.002z" fill="#BCBBAD"/><path d="M60.769 87.022c27.784 0 50.31-8.928 50.31-36.712C111.078 22.524 84.144 0 60.768 0c-23.377 0-50.31 22.524-50.31 50.31 0 27.785 22.524 36.712 50.31 36.712z" fill="#CECDC0"/><path d="M55.803 54.52c.33 2.158 2.177 3.772 4.366 3.772 2.191 0 4.04-1.617 4.366-3.778a.677.677 0 0 0-.571-.772.675.675 0 0 0-.772.567c-.229 1.503-1.512 2.625-3.023 2.625-1.511 0-2.792-1.12-3.022-2.62a.678.678 0 0 0-.773-.567.677.677 0 0 0-.57.772v.002z" fill="#9A998C"/><ellipse fill="#9A998C" cx="37.592" cy="39.248" rx="3.625" ry="5.665"/><ellipse fill="#9A998C" cx="82.928" cy="39.248" rx="3.625" ry="5.665"/><path d="M72.024 1.68c16.925 7.673 31.495 25.085 31.495 45.338 0 27.35-22.22 36.138-49.63 36.138-11.273 0-21.665-1.489-29.997-5.141 9.212 6.654 22.587 9.218 37.478 9.218 27.782 0 50.306-8.924 50.306-36.71 0-23.619-19.461-43.432-39.652-48.844" fill="#BCBBAD"/></g></g></svg>