<svg height="34" viewBox="0 0 94 34" xmlns="http://www.w3.org/2000/svg"><g fill="none" fill-rule="evenodd"><path d="M36.831 29.729c-5.028 0-8.18-3.306-8.18-7.662V7.673c0-4.354 3.152-7.66 8.18-7.66s7.862 3.306 7.862 7.66v2.702c0 .564-.48 1.048-1.038 1.048h-3.432c-.559 0-1.037-.484-1.037-1.048V7.673c0-1.33-.719-2.701-2.355-2.701-1.796 0-2.553 1.37-2.553 2.701v14.394c0 1.331.757 2.702 2.553 2.702 1.636 0 2.355-1.37 2.355-2.702v-2.7c0-.565.478-1.05 1.037-1.05h3.432c.558 0 1.038.485 1.038 1.05v2.7c0 4.356-2.834 7.662-7.862 7.662zm21.45-.484H47.427c-.559 0-1.037-.485-1.037-1.048V1.464c0-.565.478-1.008 1.037-1.008h3.592a.983.983 0 0 1 .708.292c.188.19.292.448.29.716v21.813c0 .565.477 1.009 1.037 1.009h5.227c.558 0 1.037.483 1.037 1.048v2.863c0 .563-.479 1.048-1.037 1.048zM70.809 8.077a.506.506 0 0 0-.479-.444c-.2 0-.439.161-.439.444l-1.276 9.395c-.08.563.278 1.008.877 1.008h1.716c.558 0 .878-.444.838-1.008l-1.237-9.395zm8.021 21.168H75.2c-.599 0-1.118-.444-1.198-1.009l-.838-4.556c-.12-.564-.638-1.048-1.197-1.048h-3.232c-.599 0-1.117.484-1.197 1.048l-.838 4.556c-.12.565-.638 1.009-1.197 1.009H61.87c-.6 0-.918-.444-.799-1.009L66.74 1.464A1.285 1.285 0 0 1 67.976.456h4.749c.558 0 1.117.443 1.237 1.008l5.666 26.772c.12.565-.24 1.009-.798 1.009zm9.967-13.79c-.08.282-.2.685-.28 1.049-.04.362-.08.685-.08.967v10.726c0 .563-.439 1.048-1.037 1.048h-3.592c-.558 0-1.037-.485-1.037-1.048V17.43c0-.323-.04-.686-.12-1.088-.04-.323-.12-.686-.239-.928L77.344 1.423c-.16-.524.12-.967.679-.967h3.272c.758 0 1.237.403 1.357.967l2.514 8.83c.08.283.278.404.438.404.2 0 .36-.12.44-.403l2.553-8.83c.16-.565.56-.968 1.317-.968h3.313c.598 0 .877.443.678.967l-5.108 14.032z" fill="#A59B8B"/><g transform="translate(0 .199)"><path d="M13.33 20.853c-.03.087-.078.242-.137.461-.098.359-.195.77-.285 1.23-.617 3.136-.617 6.618.413 10.114.11.374.497.585.865.475a.707.707 0 0 0 .467-.878c-.959-3.25-.959-6.508-.381-9.435a15.4 15.4 0 0 1 .345-1.422l.028-.088a.708.708 0 0 0-.433-.895.693.693 0 0 0-.884.439h.001v-.001zm8.986.457l.028.089a15.662 15.662 0 0 1 .345 1.42c.577 2.928.577 6.186-.382 9.437a.706.706 0 0 0 .467.877.696.696 0 0 0 .866-.474c1.03-3.497 1.03-6.98.413-10.116-.09-.46-.187-.87-.285-1.23a9.261 9.261 0 0 0-.136-.46.694.694 0 0 0-.883-.44.71.71 0 0 0-.433.897zm-20.807.72c.13-2.873 1.29-4.667 3.16-5.673a7.175 7.175 0 0 1 2.164-.737 7.51 7.51 0 0 1 .737-.091 4.19 4.19 0 0 1 .302-.012H7.87a.7.7 0 0 0 .708-.693.7.7 0 0 0-.683-.718h-.012a5.79 5.79 0 0 0-.41.016c-.27.019-.565.054-.879.109a8.545 8.545 0 0 0-2.58.88C1.719 16.348.273 18.586.118 21.966a.701.701 0 0 0 .663.736.699.699 0 0 0 .727-.671zm35.929-.064c-.155-3.38-1.6-5.618-3.897-6.855a8.54 8.54 0 0 0-2.58-.88 8.574 8.574 0 0 0-.88-.109 5.773 5.773 0 0 0-.41-.015h-.01a.702.702 0 0 0-.683.717.7.7 0 0 0 .707.693c-.002 0-.002 0 0 0 .06-.001.162.002.3.011.225.016.473.046.738.092a7.19 7.19 0 0 1 2.165.737c1.87 1.006 3.03 2.8 3.16 5.674.018.388.343.69.727.671a.701.701 0 0 0 .663-.736z" fill="#C8B585"/><path d="M18.651 27.077c8.528 0 15.441-2.777 15.441-11.423S25.826 0 18.652 0C11.475 0 3.21 7.008 3.21 15.654s6.913 11.423 15.441 11.423z" fill="#DDCFAC"/><path d="M17.127 16.964a1.365 1.365 0 0 0 1.34 1.174c.673 0 1.24-.504 1.34-1.176a.21.21 0 0 0-.175-.24.206.206 0 0 0-.236.176.948.948 0 0 1-.928.817.948.948 0 0 1-.928-.815.209.209 0 0 0-.236-.177.21.21 0 0 0-.176.24v.001z" fill="#776A50"/><ellipse fill="#776A50" cx="11.538" cy="12.212" rx="1.112" ry="1.763"/><ellipse fill="#776A50" cx="25.452" cy="12.212" rx="1.112" ry="1.763"/><path d="M22.12.522c5.195 2.388 9.667 7.806 9.667 14.108 0 8.51-6.82 11.244-15.233 11.244-3.46 0-6.65-.463-9.206-1.599 2.827 2.07 6.932 2.868 11.502 2.868 8.527 0 15.44-2.777 15.44-11.422 0-7.35-5.973-13.515-12.17-15.199" fill="#C8B585"/></g><path d="M3.28 17.61c.013-.009.068-.044.067-.057-.067-.73-.114-.739-.12-1.759 0-.016-.01.014-.027.023.012.37-.068.484.08 1.794zm9.21 9.083c-.034-.004.045-.11.01-.115-1.877-.283-2.94-.877-4.04-1.4 1.572.882 2.063 1.055 4.024 1.518m10.548.29c-2.925.431-6.745.34-9.15-.144-.05-.02.037.076-.004.129 1.556.256 3.223.37 4.958.37 1.468 0 2.89-.082 4.235-.262a.282.282 0 0 0-.039-.093zm11.028-9.5c-.346 5.232-4.36 8.288-9.57 9.293-.033-.005.005 0-.005.078 5.345-1.008 9.077-3.89 9.732-9.361 0 0 .02.067-.157-.01zm.2-1.763c.02.023-.076-.02-.123-.03.01-1.05-.296-5.098-2.692-8.282 1.668 2.278 2.537 4.573 2.784 7.334.038.418.056.594.038.984" fill="#B8A376"/></g></svg>