<?xml version="1.0" encoding="utf-8"?>
<!-- Generated by IcoMoon.io -->
<!DOCTYPE svg PUBLIC "-//W3C//DTD SVG 1.1//EN" "http://www.w3.org/Graphics/SVG/1.1/DTD/svg11.dtd">
<svg version="1.1" xmlns="http://www.w3.org/2000/svg" xmlns:xlink="http://www.w3.org/1999/xlink" width="24" height="28" viewBox="0 0 24 28">
<path fill="#1782A9" d="M16 14q0-1.656-1.172-2.828t-2.828-1.172-2.828 1.172-1.172 2.828 1.172 2.828 2.828 1.172 2.828-1.172 1.172-2.828zM24 12.297v3.469q0 0.187-0.125 0.359t-0.313 0.203l-2.891 0.438q-0.297 0.844-0.609 1.422 0.547 0.781 1.672 2.156 0.156 0.187 0.156 0.391t-0.141 0.359q-0.422 0.578-1.547 1.687t-1.469 1.109q-0.187 0-0.406-0.141l-2.156-1.687q-0.688 0.359-1.422 0.594-0.25 2.125-0.453 2.906-0.109 0.438-0.562 0.438h-3.469q-0.219 0-0.383-0.133t-0.18-0.336l-0.438-2.875q-0.766-0.25-1.406-0.578l-2.203 1.672q-0.156 0.141-0.391 0.141-0.219 0-0.391-0.172-1.969-1.781-2.578-2.625-0.109-0.156-0.109-0.359 0-0.187 0.125-0.359 0.234-0.328 0.797-1.039t0.844-1.102q-0.422-0.781-0.641-1.547l-2.859-0.422q-0.203-0.031-0.328-0.195t-0.125-0.367v-3.469q0-0.187 0.125-0.359t0.297-0.203l2.906-0.438q0.219-0.719 0.609-1.437-0.625-0.891-1.672-2.156-0.156-0.187-0.156-0.375 0-0.156 0.141-0.359 0.406-0.562 1.539-1.68t1.477-1.117q0.203 0 0.406 0.156l2.156 1.672q0.688-0.359 1.422-0.594 0.25-2.125 0.453-2.906 0.109-0.437 0.562-0.437h3.469q0.219 0 0.383 0.133t0.18 0.336l0.438 2.875q0.766 0.25 1.406 0.578l2.219-1.672q0.141-0.141 0.375-0.141 0.203 0 0.391 0.156 2.016 1.859 2.578 2.656 0.109 0.125 0.109 0.344 0 0.187-0.125 0.359-0.234 0.328-0.797 1.039t-0.844 1.102q0.406 0.781 0.641 1.531l2.859 0.438q0.203 0.031 0.328 0.195t0.125 0.367z"></path>
</svg>
