<?xml version="1.0" encoding="UTF-8" standalone="no"?>
<svg width="19px" height="19px" viewBox="0 0 19 19" version="1.1" xmlns="http://www.w3.org/2000/svg" xmlns:xlink="http://www.w3.org/1999/xlink" xmlns:sketch="http://www.bohemiancoding.com/sketch/ns">
    <!-- Generator: Sketch 3.3.2 (12043) - http://www.bohemiancoding.com/sketch -->
    <title>TextFormatting</title>
    <desc>Created with Sketch.</desc>
    <defs></defs>
    <g id="Page-1" stroke="none" stroke-width="1" fill="none" fill-rule="evenodd" sketch:type="MSPage">
        <g id="TextFormatting" sketch:type="MSArtboardGroup" fill="#000000">
            <g id="Link" sketch:type="MSLayerGroup" transform="translate(9.820559, 9.499750) rotate(-313.000000) translate(-9.820559, -9.499750) translate(4.820559, -2.000250)">
                <path d="M7,9.82975851 C8.16737054,9.41858057 9,8.30828878 9,7.00313032 L9,3.99686968 C9,2.34739093 7.65610859,1 5.99833453,1 L4.00166547,1 C2.33902013,1 1,2.34174426 1,3.99686968 L1,7.00313032 C1,8.30312164 1.83474079,9.41547502 3,9.82848101 L3,3.9999602 C3,3.44769743 3.44335318,3 4.0093689,3 L5.9906311,3 C6.54809015,3 7,3.45470893 7,3.9999602 L7,9.82975851 Z M3,13.1702415 C1.83262946,13.5814194 1,14.6917112 1,15.9968697 L1,19.0031303 C1,20.6526091 2.34389141,22 4.00166547,22 L5.99833453,22 C7.66097987,22 9,20.6582557 9,19.0031303 L9,15.9968697 C9,14.6968784 8.16525921,13.584525 7,13.171519 L7,19.0000398 C7,19.5523026 6.55664682,20 5.9906311,20 L4.0093689,20 C3.45190985,20 3,19.5452911 3,19.0000398 L3,13.1702415 Z" id="Rectangle-8-Copy" sketch:type="MSShapeGroup"></path>
                <rect id="Rectangle-11" sketch:type="MSShapeGroup" x="4" y="6" width="2" height="11" rx="1"></rect>
            </g>
        </g>
    </g>
</svg>