<svg width="17" height="22" viewBox="0 0 17 22" xmlns="http://www.w3.org/2000/svg"><path d="M8.381 16.762a2.101 2.101 0 0 0 2.095-2.095 2.101 2.101 0 0 0-2.095-2.096 2.101 2.101 0 0 0-2.095 2.096c0 1.152.943 2.095 2.095 2.095zm6.286-9.429h-1.048v-2.095a5.24 5.24 0 0 0-5.238-5.238 5.24 5.24 0 0 0-5.238 5.238v2.095h-1.048a2.101 2.101 0 0 0-2.095 2.097v10.476c0 1.151.943 2.094 2.095 2.094h12.572a2.101 2.101 0 0 0 2.095-2.095v-10.476a2.101 2.101 0 0 0-2.095-2.096zm-9.534-2.095a3.25 3.25 0 0 1 3.248-3.248 3.25 3.25 0 0 1 3.248 3.248v2.095h-6.496v-2.095zm9.534 14.667h-12.572v-10.476h12.572v10.476z" fill="#585C60" fill-rule="evenodd"/></svg>