<svg xmlns="http://www.w3.org/2000/svg" width="26" height="28" viewBox="0 0 26 28"><path d="M18.594 9.078L23.172 4.5 21.5 2.828l-4.578 4.578zM25.578 4.5q0 .422-.281.703L5.203 25.297q-.281.281-.703.281t-.703-.281L.703 22.203q-.281-.281-.281-.703t.281-.703L20.797.703q.281-.281.703-.281t.703.281l3.094 3.094q.281.281.281.703zM4.469 1.531L6 2l-1.531.469L4 4l-.469-1.531L2 2l1.531-.469L4 0zm5.469 2.531L13.001 5l-3.063.938L9 9.001l-.938-3.063L4.999 5l3.063-.938L9 .999zm14.531 7.469L26 12l-1.531.469L24 14l-.469-1.531L22 12l1.531-.469L24 10zm-10-10L16 2l-1.531.469L14 4l-.469-1.531L12 2l1.531-.469L14 0z"/></svg>