<svg width="28" height="28" viewBox="0 0 28 28" xmlns="http://www.w3.org/2000/svg" xmlns:sketch="http://www.bohemiancoding.com/sketch/ns"><path d="M-.001 14c0 1.857.363 3.631 1.089 5.321s1.702 3.148 2.929 4.375c1.227 1.227 2.685 2.203 4.375 2.929s3.464 1.089 5.321 1.089c2.047 0 3.994-.432 5.839-1.295 1.845-.863 3.417-2.081 4.714-3.652.083-.119.122-.253.116-.402-.006-.149-.057-.271-.152-.366l-2.446-2.464c-.119-.107-.268-.161-.446-.161-.191.024-.328.095-.411.214-.869 1.131-1.935 2.006-3.196 2.625-1.261.619-2.601.929-4.018.929-1.238 0-2.42-.241-3.545-.723s-2.099-1.134-2.92-1.955c-.821-.821-1.473-1.795-1.955-2.92s-.723-2.307-.723-3.545.241-2.42.723-3.545 1.134-2.099 1.955-2.92c.821-.821 1.795-1.473 2.92-1.955s2.307-.723 3.545-.723c1.167 0 2.286.211 3.357.634 1.071.423 2.024 1.027 2.857 1.813l-2.446 2.464c-.369.357-.453.768-.25 1.232.203.476.554.714 1.054.714h8c.309 0 .577-.113.804-.339.227-.226.34-.494.339-.804v-8c0-.5-.238-.851-.714-1.054-.464-.203-.875-.119-1.232.25l-2.321 2.304c-1.274-1.203-2.729-2.134-4.366-2.795-1.637-.661-3.33-.991-5.08-.991-1.857 0-3.631.363-5.321 1.089s-3.148 1.702-4.375 2.929c-1.227 1.227-2.203 2.685-2.929 4.375s-1.089 3.464-1.089 5.321l-.002.002z"/></svg>
