<svg width="28" height="28" viewBox="0 0 28 28" xmlns="http://www.w3.org/2000/svg"><path d="M-.001 14c0 1.857.363 3.631 1.089 5.321s1.702 3.148 2.929 4.375c1.227 1.227 2.685 2.203 4.375 2.929s3.464 1.089 5.321 1.089a13.62 13.62 0 0 0 5.839-1.295 13.407 13.407 0 0 0 4.714-3.652.64.64 0 0 0 .116-.402.528.528 0 0 0-.152-.366l-2.446-2.464a.643.643 0 0 0-.446-.161c-.191.024-.328.095-.411.214a8.968 8.968 0 0 1-3.196 2.625 9.002 9.002 0 0 1-4.018.929c-1.238 0-2.42-.241-3.545-.723s-2.099-1.134-2.92-1.955c-.821-.821-1.473-1.795-1.955-2.92s-.723-2.307-.723-3.545.241-2.42.723-3.545 1.134-2.099 1.955-2.92c.821-.821 1.795-1.473 2.92-1.955s2.307-.723 3.545-.723c1.167 0 2.286.211 3.357.634a8.875 8.875 0 0 1 2.857 1.813l-2.446 2.464c-.369.357-.453.768-.25 1.232.203.476.554.714 1.054.714h8c.309 0 .577-.113.804-.339.227-.226.34-.494.339-.804v-8c0-.5-.238-.851-.714-1.054-.464-.203-.875-.119-1.232.25L23.161 4.07a13.858 13.858 0 0 0-4.366-2.795 13.445 13.445 0 0 0-5.08-.991c-1.857 0-3.631.363-5.321 1.089S5.246 3.075 4.019 4.302C2.792 5.529 1.816 6.987 1.09 8.677S.001 12.141.001 13.998L-.001 14z"/></svg>