<svg width="18" height="18" viewBox="0 0 18 18" xmlns="http://www.w3.org/2000/svg"><path d="M15.877 9.882c.037-.288.064-.576.064-.882 0-.306-.027-.594-.064-.882l1.952-1.485a.446.446 0 0 0 .11-.576l-1.85-3.114a.471.471 0 0 0-.564-.198l-2.304.9a6.83 6.83 0 0 0-1.563-.882L11.306.378A.447.447 0 0 0 10.853 0H7.152a.447.447 0 0 0-.454.378l-.351 2.385a7.16 7.16 0 0 0-1.564.882l-2.304-.9a.457.457 0 0 0-.564.198L.065 6.057a.436.436 0 0 0 .11.576l1.952 1.485A6.946 6.946 0 0 0 2.063 9c0 .297.027.594.064.882L.175 11.367a.446.446 0 0 0-.11.576l1.85 3.114c.11.198.36.27.564.198l2.304-.9c.481.36 1 .657 1.564.882l.351 2.385a.447.447 0 0 0 .454.378h3.7a.447.447 0 0 0 .454-.378l.352-2.385a7.16 7.16 0 0 0 1.563-.882l2.304.9c.213.081.453 0 .564-.198l1.85-3.114a.446.446 0 0 0-.11-.576l-1.952-1.485zM9.002 12.15c-1.786 0-3.238-1.413-3.238-3.15 0-1.737 1.452-3.15 3.238-3.15S12.24 7.263 12.24 9c0 1.737-1.452 3.15-3.238 3.15z" fill="#727272" fill-rule="evenodd"/></svg>