<?xml version="1.0" encoding="UTF-8" standalone="no"?>
<svg width="40px" height="36px" viewBox="0 0 40 36" version="1.1" xmlns="http://www.w3.org/2000/svg" xmlns:xlink="http://www.w3.org/1999/xlink">
  <g stroke="none" stroke-width="1" fill="none" fill-rule="evenodd">
    <g transform="translate(2.000000, 0.000000)">
      <polygon stroke="#FFFFFF" stroke-width="1.5" transform="translate(18.000000, 18.000000) rotate(-90.000000) translate(-18.000000, -18.000000) " points="18 0 33.5884573 9 33.5884573 27 18 36 2.41154273 27 2.41154273 9 "></polygon>
      <path fill="#FFFFFF" d="M6.64924238,19.1958226 C6.69366299,19.5162856 6.78091647,19.755836 6.91100541,19.9144811 C7.14897299,20.2032151 7.55668466,20.3475799 8.13415266,20.3475799 C8.47999888,20.3475799 8.76079641,20.3095057 8.97655368,20.2333561 C9.38585792,20.0874026 9.59050697,19.8161236 9.59050697,19.419511 C9.59050697,19.1878892 9.48897566,19.008623 9.28590999,18.881707 C9.08284432,18.7579638 8.76397255,18.6485004 8.3292851,18.5533133 L7.58682996,18.3867369 C6.85706271,18.221746 6.35257901,18.0424798 6.07336371,17.8489328 C5.60060145,17.5252969 5.36422387,17.0192268 5.36422387,16.3307072 C5.36422387,15.7024728 5.59266932,15.1805384 6.04956707,14.7648884 C6.50646483,14.3492384 7.17752334,14.1414164 8.06276274,14.1414164 C8.80204869,14.1414164 9.43265332,14.3373402 9.95459555,14.7291934 C10.4765378,15.1210467 10.7501964,15.6897807 10.7755796,16.4354125 L9.36681856,16.4354125 C9.34143536,16.0134166 9.15740985,15.713582 8.81473654,15.5358995 C8.58628766,15.4185022 8.30231727,15.3598044 7.96281686,15.3598044 C7.58524163,15.3598044 7.28382055,15.4359529 7.05854457,15.5882521 C6.8332686,15.7405514 6.7206323,15.9531325 6.7206323,16.226002 C6.7206323,16.4766612 6.83168217,16.6638596 7.05378524,16.7876027 C7.19656579,16.8700981 7.50115973,16.9668702 7.96757619,17.0779217 L9.17644545,17.3682407 C9.70631993,17.4951568 10.1060995,17.6649044 10.3757961,17.8774888 C10.794619,18.2074705 11.0040273,18.684985 11.0040273,19.3100465 C11.0040273,19.9509725 10.7589244,20.4832187 10.2687112,20.9068009 C9.77849797,21.3303832 9.0860227,21.5421712 8.19126459,21.5421712 C7.27746908,21.5421712 6.55881777,21.3335561 6.03528909,20.9163196 C5.51176041,20.4990831 5.25,19.9255898 5.25,19.1958226 L6.64924238,19.1958226 Z M17.1738469,14.3460675 L17.1738469,15.5882521 L15.0749833,15.5882521 L15.0749833,21.3613168 L13.5995917,21.3613168 L13.5995917,15.5882521 L11.4912094,15.5882521 L11.4912094,14.3460675 L17.1738469,14.3460675 Z M22.5356623,19.6717554 C22.8767492,19.2434137 23.0472901,18.6342259 23.0472901,17.8441735 C23.0472901,17.057294 22.8767492,16.4488994 22.5356623,16.0189713 C22.1945754,15.5890432 21.7337185,15.3740824 21.1530776,15.3740824 C20.5724367,15.3740824 20.1092001,15.58825 19.7633539,16.0165916 C19.4175076,16.4449333 19.2445871,17.0541211 19.2445871,17.8441735 C19.2445871,18.6342259 19.4175076,19.2434137 19.7633539,19.6717554 C20.1092001,20.100097 20.5724367,20.3142646 21.1530776,20.3142646 C21.7337185,20.3142646 22.1945754,20.100097 22.5356623,19.6717554 L22.5356623,19.6717554 Z M21.1565138,21.5564492 C20.1537918,21.5564492 19.3874826,21.2835838 18.8575632,20.7378448 C18.1467729,20.0683627 17.7913832,19.1038152 17.7913832,17.8441735 C17.7913832,16.5591486 18.1467729,15.5946011 18.8575632,14.9505022 C19.3874826,14.4047632 20.1537918,14.1318978 21.1565138,14.1318978 C22.1592357,14.1318978 22.9255449,14.4047632 23.4554644,14.9505022 C24.1630814,15.5946011 24.5168846,16.5591486 24.5168846,17.8441735 C24.5168846,19.1038152 24.1630814,20.0683627 23.4554644,20.7378448 C22.9255449,21.2835838 22.1592357,21.5564492 21.1565138,21.5564492 Z M29.5161765,15.7976625 C29.324216,15.6421904 29.0553167,15.5644555 28.7094705,15.5644555 L27.3435434,15.5644555 L27.3435434,17.6300037 L28.7094705,17.6300037 C29.0553167,17.6300037 29.324216,17.5459231 29.5161765,17.3777594 C29.7081371,17.2095956 29.8041159,16.9430759 29.8041159,16.5781923 C29.8041159,16.2133087 29.7081371,15.9531347 29.5161765,15.7976625 L29.5161765,15.7976625 Z M30.6217687,18.3248656 C30.2029458,18.6675389 29.6048629,18.838873 28.8275021,18.838873 L27.3378325,18.838873 L27.3378325,21.3613168 L25.8814782,21.3613168 L25.8814782,14.3460675 L28.9369667,14.3460675 C29.6413507,14.3460675 30.2029458,14.5269202 30.6217687,14.8886309 C31.0405917,15.2503416 31.25,15.8103503 31.25,16.5686736 C31.25,17.3968008 31.0405917,17.9821923 30.6217687,18.3248656 L30.6217687,18.3248656 Z" id="STOP"></path>
    </g>
  </g>
</svg>