<svg width="18" height="16" viewBox="0 0 18 16" xmlns="http://www.w3.org/2000/svg">
  <path d="M4.24 5.75c-.26-.48-.39-1.03-.39-1.67 0-.61.13-1.16.4-1.67.26-.5.63-.93 1.11-1.29a5.73 5.73 0 0 1 1.7-.83C7.72.1 8.45 0 9.24 0c.81 0 1.54.11 2.21.34.66.22 1.23.54 1.69.94.47.4.83.88 1.08 1.43.25.55.38 1.15.38 1.81h-3.01c0-.31-.05-.59-.15-.85-.09-.27-.24-.49-.44-.68-.2-.19-.45-.33-.75-.44-.3-.1-.66-.16-1.06-.16-.39 0-.74.04-1.03.13-.29.09-.53.21-.72.36-.19.16-.34.34-.44.55-.1.21-.15.43-.15.66 0 .48.25.88.74 1.21.38.25.77.48 1.41.7H4.39c-.05-.08-.11-.17-.15-.25zM18 9V7H0v2h9.62c.18.07.4.14.55.2.37.17.66.34.87.51.21.17.35.36.43.57.07.2.11.43.11.69 0 .23-.05.45-.14.66-.09.2-.23.38-.42.53-.19.15-.42.26-.71.35-.29.08-.63.13-1.01.13-.43 0-.83-.04-1.18-.13s-.66-.23-.91-.42a1.92 1.92 0 0 1-.59-.75c-.14-.31-.25-.76-.25-1.21H3.4c0 .55.08 1.13.24 1.58.16.45.37.85.65 1.21.28.35.6.66.98.92.37.26.78.48 1.22.65.44.17.9.3 1.38.39.48.08.96.13 1.44.13.8 0 1.53-.09 2.18-.28.65-.19 1.21-.45 1.67-.79.46-.34.82-.77 1.07-1.27.25-.5.38-1.07.38-1.71 0-.6-.1-1.14-.31-1.61-.05-.11-.11-.23-.17-.33H18V9z" fill="#4A4A4A" fill-rule="evenodd"/>
</svg>
