<svg xmlns="http://www.w3.org/2000/svg" width="30" height="29" viewBox="0 0 30 29"><g fill="none" fill-rule="evenodd" opacity=".94"><path class="triforce-published" fill="#669E63" d="M15 0c-3.864 0-7 3.136-7 7s3.136 7 7 7 7-3.136 7-7-3.136-7-7-7zm-1.4 10.5L10.1 7l.987-.987L13.6 8.519l5.313-5.313.987.994-6.3 6.3z"/><path class="triforce-scheduled" fill="#D39D22" d="M7 15c-3.85 0-7 3.15-7 7s3.15 7 7 7 7-3.15 7-7-3.15-7-7-7zm3.547 10.313L6.3 22.7v-4.9h1.225v4.247l3.675 2.205-.653 1.061z"/><path class="triforce-draft" stroke="#C8B585" stroke-width="3" d="M17.5 22c0 3.022 2.478 5.5 5.5 5.5s5.5-2.478 5.5-5.5-2.478-5.5-5.5-5.5-5.5 2.478-5.5 5.5z"/></g></svg>