<svg xmlns="http://www.w3.org/2000/svg" width="27" height="32" viewBox="0 0 27 32"><path d="M27.429 16q0 2.786-1.089 5.321t-2.929 4.375-4.375 2.929-5.321 1.089q-3.071 0-5.839-1.295t-4.714-3.652q-.125-.179-.116-.402t.152-.366l2.446-2.464q.179-.161.446-.161.286.036.411.214 1.304 1.696 3.196 2.625t4.018.929q1.857 0 3.545-.723t2.92-1.955 1.955-2.92.723-3.545-.723-3.545-1.955-2.92-2.92-1.955-3.545-.723q-1.75 0-3.357.634t-2.857 1.813l2.446 2.464q.554.536.25 1.232-.304.714-1.054.714h-8q-.464 0-.804-.339t-.339-.804v-8q0-.75.714-1.054.696-.304 1.232.25l2.321 2.304q1.911-1.804 4.366-2.795t5.08-.991q2.786 0 5.321 1.089t4.375 2.929 2.929 4.375 1.089 5.321z"/></svg>