<?xml version="1.0" encoding="UTF-8" standalone="no"?>
<svg width="37px" height="41px" viewBox="0 0 37 41" version="1.1" xmlns="http://www.w3.org/2000/svg" xmlns:xlink="http://www.w3.org/1999/xlink" xmlns:sketch="http://www.bohemiancoding.com/sketch/ns">
    <!-- Generator: Sketch 3.4 (15575) - http://www.bohemiancoding.com/sketch -->
    <title>user-icon</title>
    <desc>Created with Sketch.</desc>
    <defs></defs>
    <g id="Page-1" stroke="none" stroke-width="1" fill="none" fill-rule="evenodd" sketch:type="MSPage">
        <g id="Clay-Toolbar-Mobile" sketch:type="MSArtboardGroup" transform="translate(-30.000000, -1256.000000)" fill="#FFFFFF">
            <g id="toolbar" sketch:type="MSLayerGroup" transform="translate(0.000000, 80.000000)">
                <g id="user-icon" transform="translate(30.000000, 1176.000000)" sketch:type="MSShapeGroup">
                    <path d="M1.88737864,34.9980583 C0.00582524272,36.8349515 0,41 0,41 L36.638835,41 C36.638835,41 36.4621359,36.831068 34.6601942,34.984466 C32.8582524,33.1378641 32.3941748,34.1106796 26.5572816,30.7184466 C25.2446602,29.9553398 23.8097087,28.5941748 25.5495146,21.2699029 L25.5864078,21.1165049 C26.7203883,20.5475728 28.0330097,19.2524272 28.3456311,17.5941748 C28.6213592,16.1281553 27.9650485,14.6970874 27.3223301,13.6621359 L28.1631068,10.0524272 C28.1631068,10.0524272 28.3631068,8.4815534 28.3242718,7.66796117 C28.2854369,6.81165049 28.1029126,6.1961165 27.9514563,5.50291262 C27.5941748,3.92038835 26.2058252,2.41165049 26.2058252,2.41165049 L26.1883495,2.41165049 C25.207767,1.38058252 21.8640777,0.00776699029 18.3961165,0 L18.368932,0 C14.9029126,0.00776699029 11.5592233,1.38058252 10.576699,2.41165049 L10.5631068,2.41165049 C10.5631068,2.41165049 9.17281553,3.92038835 8.81553398,5.50291262 C8.66213592,6.1961165 8.4815534,6.81165049 8.4407767,7.66796117 C8.4038835,8.4815534 8.60194175,10.0524272 8.60194175,10.0524272 L9.44466019,13.6621359 C8.8,14.6970874 8.27378641,16.1281553 8.54757282,17.5941748 C8.86213592,19.2524272 10.0466019,20.5475728 11.1786408,21.1165049 L11.215534,21.2699029 C12.9572816,28.5941748 11.5223301,29.9553398 10.207767,30.7184466 C4.37087379,34.1106796 3.76699029,33.1631068 1.88737864,34.9980583 L1.88737864,34.9980583 Z" id="Shape"></path>
                </g>
            </g>
        </g>
    </g>
</svg>